<?xml version="1.0" encoding="UTF-8"?>
<svg id="Layer_1" xmlns="http://www.w3.org/2000/svg" xmlns:xlink="http://www.w3.org/1999/xlink" version="1.1" viewBox="0 0 192 192">
  <!-- Generator: Adobe Illustrator 29.5.1, SVG Export Plug-In . SVG Version: 2.1.0 Build 141)  -->
  <defs>
    <style>
      .st0 {
        fill: url(#linear-gradient2);
      }

      .st1 {
        fill: url(#linear-gradient1);
      }

      .st2 {
        fill: url(#linear-gradient);
      }
    </style>
    <linearGradient id="linear-gradient" x1="18.3" y1="71.3" x2="113.9" y2="71.3" gradientUnits="userSpaceOnUse">
      <stop offset="0" stop-color="#fff"/>
      <stop offset="1" stop-color="#dee4dd"/>
    </linearGradient>
    <linearGradient id="linear-gradient1" x1="89.8" y1="123.5" x2="167.5" y2="123.5" xlink:href="#linear-gradient"/>
    <linearGradient id="linear-gradient2" x1="161.2" y1="165.6" x2="173.7" y2="165.6" xlink:href="#linear-gradient"/>
  </defs>
  <rect y="0" width="192" height="192"/>
  <g>
    <path class="st2" d="M66,19c6.9,0,13.2,1.1,18.9,3.2,5.7,2.1,10.5,5,14.3,8.6,3.8,3.6,7,7.8,9.4,12.6,2.5,4.7,4.1,9.7,4.8,14.8.7,5.1.6,10.3-.2,15.6-.8,5.3-2.4,10.2-4.7,14.8-2.3,4.6-5.5,8.7-9.7,12.4-4.2,3.7-9,6.6-14.4,8.5.7.6,2.1,2,4.2,4,2.1,2,3.7,3.5,4.8,4.4,1.1.9,2.8,1.8,5,2.8,2.2,1,4.6,1.5,7,1.6,1.9,0,3.8-.1,5.7-.7-3.9,1.2-7.4,1.9-10.6,1.9s-4.6-.2-6.6-.6c-2-.4-3.6-.8-4.9-1.3-1.3-.4-2.6-1.2-4.1-2.2-1.4-1-2.5-1.8-3.1-2.4-.7-.6-1.6-1.5-2.9-2.8-1.2-1.3-2.1-2.1-2.5-2.6-3.5.6-7,.9-10.5.9-6.9,0-13.2-1.1-18.9-3.2-5.7-2.1-10.4-5-14.2-8.6-3.7-3.6-6.9-7.8-9.4-12.4-2.6-4.7-4.1-9.6-4.7-14.8-.6-5.2-.6-10.4,0-15.6.6-5.2,2.1-10.1,4.7-14.8,2.6-4.7,5.7-8.8,9.4-12.4,3.7-3.6,8.4-6.4,14.2-8.6,5.7-2.1,12-3.2,18.9-3.2ZM81.8,107.4c5.4-2.7,9.9-6.7,13.4-12.2,3.5-5.5,5.9-11.4,7.2-17.8,1.2-6.4,1.4-13,.4-19.7-1-6.8-2.9-12.9-5.8-18.4-2.9-5.5-7-10-12.4-13.6-5.4-3.5-11.6-5.3-18.6-5.3s-11.5,1.3-16.3,3.9c-4.8,2.6-8.7,6-11.7,10.3-3,4.3-5.3,9.1-6.8,14.6-1.6,5.5-2.4,11-2.4,16.7s.8,11.2,2.4,16.6c1.6,5.4,3.9,10.2,6.8,14.5,3,4.3,6.9,7.7,11.7,10.3,4.8,2.6,10.3,3.9,16.3,3.9s5.9-.4,8.6-1.1c-3.1-2.6-6.8-3.9-11.2-3.9s-2.3.3-3.9.8c-1.6.5-2.9,1.2-4,1.9,4.7-3.6,9.3-5.5,13.7-5.5s8.9,1.3,12.5,4Z"/>
    <path class="st1" d="M166.4,137.8c0-.4.3-.6.8-.4.2.2.3.4.3.7-1.8,9.8-5.7,17.6-11.8,23.5-6.1,5.9-13.9,8.8-23.4,8.8s-15-2.2-21.5-6.6c-6.6-4.4-11.7-10.1-15.4-17.2-3.7-7-5.5-14.6-5.5-22.5s1-12.2,3.1-17.9c2.1-5.7,5-10.8,8.8-15.2,3.8-4.4,8.6-7.9,14.5-10.4,5.9-2.6,12.4-3.9,19.5-3.9s8.3.8,12,2.5c3.8,1.6,6.8,3.7,9,6.2,2.3,2.5,4,5.2,5.1,8,1.2,2.8,1.5,5.5,1.2,7.8-.4,2.7-1.3,4.4-2.9,5.3-1.6.8-3.1.7-4.4-.5s-1.9-2.9-1.6-5.1c.9-6.8-.2-12.3-3.2-16.6-3-4.2-8.3-6.3-16-6.3s-9.3.9-13.3,2.7c-4,1.8-7.2,4.2-9.7,7.2-2.5,3-4.6,6.4-6.3,10.2s-2.9,7.7-3.7,11.6c-.7,3.9-1.1,7.8-1.1,11.8s.5,8.4,1.4,12.6c.9,4.2,2.4,8.3,4.3,12.2,1.9,3.9,4.3,7.4,7,10.4,2.7,3.1,6.1,5.5,10,7.4,3.9,1.9,8.3,2.8,13,2.8s6.5-.5,9.4-1.5c2.9-1,5.3-2.3,7.2-4,1.9-1.6,3.7-3.5,5.3-5.6,1.6-2.1,2.9-4.1,3.8-6,.9-1.9,1.7-3.8,2.3-5.7.6-1.8,1-3.3,1.3-4.3.2-1.1.3-1.7.3-2Z"/>
    <path class="st0" d="M171.9,160.3c1.2,1.4,1.8,3.2,1.8,5.2s-.6,3.9-1.8,5.3c-1.2,1.5-2.7,2.2-4.4,2.2s-3.2-.7-4.4-2.2c-1.2-1.5-1.8-3.2-1.8-5.3s.6-3.9,1.8-5.3,2.7-2,4.4-2,3.2.7,4.4,2.1Z"/>
  </g>
</svg>